REM DIRINDEX 1\8,1\2\11,1\3\12,1\3\14,1\5\15,1\5\16,1\6\17,1\6\18,1\4\19,1\4\20,1\4\21,1\4\22,1\7\23,1\7\24,1\7\25,1\2\9\26,1\2\9\27,1\2\10\28,1\2\10\29,1\2\10\30,1\2\10\31,1\2\10\32,1\3\13\33,1\3\13\34,1\3\13\35
REM DIRNAME folder01,folder02,folder03,folder04,folder05,folder06,folder07,folder08,folder09,folder10,folder11,folder12,folder13,folder14,folder15,folder16,folder17,folder18,folder19,folder20,folder21,folder22,folder23,folder24,folder25,folder26,folder27,folder28,folder29,folder30,folder31,folder32,folder33,folder34,folder35
TITLE ""
FILE "69 069_UNIT7_SET3.mp3" MP3
  TRACK 01 AUDIO
    TITLE "11:cjc123_6798"
    INDEX 01 00:00:00
  TRACK 02 AUDIO
    TITLE "0:"
    INDEX 01 00:02:51
  TRACK 03 AUDIO
    TITLE "28:cjc123_6799"
    INDEX 01 00:03:21
  TRACK 04 AUDIO
    TITLE "0:"
    INDEX 01 00:04:31
  TRACK 05 AUDIO
    TITLE "29:cjc123_6800"
    INDEX 01 00:04:44
  TRACK 06 AUDIO
    TITLE "0:"
    INDEX 01 00:05:65
  TRACK 07 AUDIO
    TITLE "30:cjc123_6801"
    INDEX 01 00:05:73
  TRACK 08 AUDIO
    TITLE "0:"
    INDEX 01 00:07:03
  TRACK 09 AUDIO
    TITLE "31:cjc123_6802"
    INDEX 01 00:08:01
  TRACK 10 AUDIO
    TITLE "0:"
    INDEX 01 00:13:61
  TRACK 11 AUDIO
    TITLE "32:cjc123_6803"
    INDEX 01 00:14:19
  TRACK 12 AUDIO
    TITLE "0:"
    INDEX 01 00:19:26
  TRACK 13 AUDIO
    TITLE "28:cjc123_6804"
    INDEX 01 00:19:52
  TRACK 14 AUDIO
    TITLE "0:"
    INDEX 01 00:21:25
  TRACK 15 AUDIO
    TITLE "29:cjc123_6805"
    INDEX 01 00:21:37
  TRACK 16 AUDIO
    TITLE "0:"
    INDEX 01 00:23:16
  TRACK 17 AUDIO
    TITLE "30:cjc123_6806"
    INDEX 01 00:23:30
  TRACK 18 AUDIO
    TITLE "0:"
    INDEX 01 00:24:69
  TRACK 19 AUDIO
    TITLE "31:cjc123_6807"
    INDEX 01 00:25:58
  TRACK 20 AUDIO
    TITLE "0:"
    INDEX 01 00:29:52
  TRACK 21 AUDIO
    TITLE "32:cjc123_6808"
    INDEX 01 00:30:08
  TRACK 22 AUDIO
    TITLE "0:"
    INDEX 01 00:34:16
  TRACK 23 AUDIO
    TITLE "28:cjc123_6809"
    INDEX 01 00:34:61
  TRACK 24 AUDIO
    TITLE "0:"
    INDEX 01 00:36:09
  TRACK 25 AUDIO
    TITLE "29:cjc123_6810"
    INDEX 01 00:36:15
  TRACK 26 AUDIO
    TITLE "0:"
    INDEX 01 00:37:61
  TRACK 27 AUDIO
    TITLE "30:cjc123_6811"
    INDEX 01 00:37:63
  TRACK 28 AUDIO
    TITLE "0:"
    INDEX 01 00:39:09
  TRACK 29 AUDIO
    TITLE "31:cjc123_6812"
    INDEX 01 00:39:52
  TRACK 30 AUDIO
    TITLE "0:"
    INDEX 01 00:44:09
  TRACK 31 AUDIO
    TITLE "32:cjc123_6813"
    INDEX 01 00:44:46
  TRACK 32 AUDIO
    TITLE "0:"
    INDEX 01 00:49:04
  TRACK 33 AUDIO
    TITLE "28:cjc123_6814"
    INDEX 01 00:49:51
  TRACK 34 AUDIO
    TITLE "0:"
    INDEX 01 00:50:58
  TRACK 35 AUDIO
    TITLE "29:cjc123_6815"
    INDEX 01 00:50:64
  TRACK 36 AUDIO
    TITLE "0:"
    INDEX 01 00:52:41
  TRACK 37 AUDIO
    TITLE "30:cjc123_6816"
    INDEX 01 00:52:47
  TRACK 38 AUDIO
    TITLE "0:"
    INDEX 01 00:53:62
  TRACK 39 AUDIO
    TITLE "31:cjc123_6817"
    INDEX 01 00:54:44
  TRACK 40 AUDIO
    TITLE "0:"
    INDEX 01 00:58:56
  TRACK 41 AUDIO
    TITLE "32:cjc123_6818"
    INDEX 01 00:59:26
  TRACK 42 AUDIO
    TITLE "0:"
    INDEX 01 01:03:35
  TRACK 43 AUDIO
    TITLE "28:cjc123_6819"
    INDEX 01 01:03:63
  TRACK 44 AUDIO
    TITLE "0:"
    INDEX 01 01:04:70
  TRACK 45 AUDIO
    TITLE "29:cjc123_6820"
    INDEX 01 01:05:07
  TRACK 46 AUDIO
    TITLE "0:"
    INDEX 01 01:06:14
  TRACK 47 AUDIO
    TITLE "30:cjc123_6821"
    INDEX 01 01:06:24
  TRACK 48 AUDIO
    TITLE "0:"
    INDEX 01 01:07:31
  TRACK 49 AUDIO
    TITLE "31:cjc123_6822"
    INDEX 01 01:08:07
  TRACK 50 AUDIO
    TITLE "0:"
    INDEX 01 01:11:25
  TRACK 51 AUDIO
    TITLE "32:cjc123_6823"
    INDEX 01 01:11:58
  TRACK 52 AUDIO
    TITLE "0:"
    INDEX 01 01:14:41
  TRACK 53 AUDIO
    TITLE "28:cjc123_6824"
    INDEX 01 01:15:13
  TRACK 54 AUDIO
    TITLE "0:"
    INDEX 01 01:16:18
  TRACK 55 AUDIO
    TITLE "29:cjc123_6825"
    INDEX 01 01:16:24
  TRACK 56 AUDIO
    TITLE "0:"
    INDEX 01 01:17:39
  TRACK 57 AUDIO
    TITLE "30:cjc123_6826"
    INDEX 01 01:17:51
  TRACK 58 AUDIO
    TITLE "0:"
    INDEX 01 01:18:58
  TRACK 59 AUDIO
    TITLE "31:cjc123_6827"
    INDEX 01 01:19:40
  TRACK 60 AUDIO
    TITLE "0:"
    INDEX 01 01:24:20
  TRACK 61 AUDIO
    TITLE "32:cjc123_6828"
    INDEX 01 01:24:26
  TRACK 62 AUDIO
    TITLE "0:"
    INDEX 01 01:28:08
  TRACK 63 AUDIO
    TITLE "28:cjc123_6829"
    INDEX 01 01:28:51
  TRACK 64 AUDIO
    TITLE "0:"
    INDEX 01 01:29:70
  TRACK 65 AUDIO
    TITLE "29:cjc123_6830"
    INDEX 01 01:30:01
  TRACK 66 AUDIO
    TITLE "0:"
    INDEX 01 01:31:10
  TRACK 67 AUDIO
    TITLE "30:cjc123_6831"
    INDEX 01 01:31:18
  TRACK 68 AUDIO
    TITLE "0:"
    INDEX 01 01:32:35
  TRACK 69 AUDIO
    TITLE "31:cjc123_6832"
    INDEX 01 01:33:07
  TRACK 70 AUDIO
    TITLE "0:"
    INDEX 01 01:39:23
  TRACK 71 AUDIO
    TITLE "32:cjc123_6833"
    INDEX 01 01:39:66
  TRACK 72 AUDIO
    TITLE "0:"
    INDEX 01 01:47:72
  TRACK 73 AUDIO
    TITLE "28:cjc123_6834"
    INDEX 01 01:48:38
  TRACK 74 AUDIO
    TITLE "0:"
    INDEX 01 01:49:69
  TRACK 75 AUDIO
    TITLE "29:cjc123_6835"
    INDEX 01 01:50:00
  TRACK 76 AUDIO
    TITLE "0:"
    INDEX 01 01:51:27
  TRACK 77 AUDIO
    TITLE "30:cjc123_6836"
    INDEX 01 01:51:32
  TRACK 78 AUDIO
    TITLE "0:"
    INDEX 01 01:52:59
  TRACK 79 AUDIO
    TITLE "31:cjc123_6837"
    INDEX 01 01:53:39
  TRACK 80 AUDIO
    TITLE "0:"
    INDEX 01 01:57:17
  TRACK 81 AUDIO
    TITLE "32:cjc123_6838"
    INDEX 01 01:57:49
  TRACK 82 AUDIO
    TITLE "0:"
    INDEX 01 02:00:45
  TRACK 83 AUDIO
    TITLE "28:cjc123_6839"
    INDEX 01 02:01:21
  TRACK 84 AUDIO
    TITLE "0:"
    INDEX 01 02:02:44
  TRACK 85 AUDIO
    TITLE "29:cjc123_6840"
    INDEX 01 02:02:58
  TRACK 86 AUDIO
    TITLE "0:"
    INDEX 01 02:03:63
  TRACK 87 AUDIO
    TITLE "30:cjc123_6841"
    INDEX 01 02:03:71
  TRACK 88 AUDIO
    TITLE "0:"
    INDEX 01 02:05:07
  TRACK 89 AUDIO
    TITLE "31:cjc123_6842"
    INDEX 01 02:05:70
  TRACK 90 AUDIO
    TITLE "0:"
    INDEX 01 02:10:18
  TRACK 91 AUDIO
    TITLE "32:cjc123_6843"
    INDEX 01 02:10:42
  TRACK 92 AUDIO
    TITLE "0:"
    INDEX 01 02:15:19
  TRACK 93 AUDIO
    TITLE "28:cjc123_6844"
    INDEX 01 02:15:52
  TRACK 94 AUDIO
    TITLE "0:"
    INDEX 01 02:16:62
  TRACK 95 AUDIO
    TITLE "29:cjc123_6845"
    INDEX 01 02:17:00
  TRACK 96 AUDIO
    TITLE "0:"
    INDEX 01 02:18:33
  TRACK 97 AUDIO
    TITLE "30:cjc123_6846"
    INDEX 01 02:18:43
  TRACK 98 AUDIO
    TITLE "0:"
    INDEX 01 02:19:60
  TRACK 99 AUDIO
    TITLE "31:cjc123_6847"
    INDEX 01 02:20:36
  TRACK 100 AUDIO
    TITLE "0:"
    INDEX 01 02:25:51
  TRACK 101 AUDIO
    TITLE "32:cjc123_6848"
    INDEX 01 02:26:05
  TRACK 102 AUDIO
    TITLE "0:"
    INDEX 01 02:31:48
  TRACK 103 AUDIO
    TITLE "28:cjc123_6849"
    INDEX 01 02:32:20
  TRACK 104 AUDIO
    TITLE "0:"
    INDEX 01 02:33:27
  TRACK 105 AUDIO
    TITLE "29:cjc123_6850"
    INDEX 01 02:33:43
  TRACK 106 AUDIO
    TITLE "0:"
    INDEX 01 02:34:71
  TRACK 107 AUDIO
    TITLE "30:cjc123_6851"
    INDEX 01 02:35:04
  TRACK 108 AUDIO
    TITLE "0:"
    INDEX 01 02:36:13
  TRACK 109 AUDIO
    TITLE "31:cjc123_6852"
    INDEX 01 02:36:70
  TRACK 110 AUDIO
    TITLE "0:"
    INDEX 01 02:41:03
  TRACK 111 AUDIO
    TITLE "32:cjc123_6853"
    INDEX 01 02:41:56
  TRACK 112 AUDIO
    TITLE "0:"
    INDEX 01 02:46:39
  TRACK 113 AUDIO
    TITLE "28:cjc123_6854"
    INDEX 01 02:46:63
  TRACK 114 AUDIO
    TITLE "0:"
    INDEX 01 02:47:54
  TRACK 115 AUDIO
    TITLE "29:cjc123_6855"
    INDEX 01 02:48:01
  TRACK 116 AUDIO
    TITLE "0:"
    INDEX 01 02:49:02
  TRACK 117 AUDIO
    TITLE "30:cjc123_6856"
    INDEX 01 02:49:26
  TRACK 118 AUDIO
    TITLE "0:"
    INDEX 01 02:50:33
  TRACK 119 AUDIO
    TITLE "31:cjc123_6857"
    INDEX 01 02:51:29
  TRACK 120 AUDIO
    TITLE "0:"
    INDEX 01 02:57:02
  TRACK 121 AUDIO
    TITLE "32:cjc123_6858"
    INDEX 01 02:57:27
  TRACK 122 AUDIO
    TITLE "0:"
    INDEX 01 03:03:67
  TRACK 123 AUDIO
    TITLE "28:cjc123_6859"
    INDEX 01 03:04:14
  TRACK 124 AUDIO
    TITLE "0:"
    INDEX 01 03:05:25
  TRACK 125 AUDIO
    TITLE "29:cjc123_6860"
    INDEX 01 03:05:31
  TRACK 126 AUDIO
    TITLE "0:"
    INDEX 01 03:06:50
  TRACK 127 AUDIO
    TITLE "30:cjc123_6861"
    INDEX 01 03:06:60
  TRACK 128 AUDIO
    TITLE "0:"
    INDEX 01 03:07:67
  TRACK 129 AUDIO
    TITLE "31:cjc123_6862"
    INDEX 01 03:08:55
  TRACK 130 AUDIO
    TITLE "0:"
    INDEX 01 03:14:45
  TRACK 131 AUDIO
    TITLE "32:cjc123_6863"
    INDEX 01 03:15:15
  TRACK 132 AUDIO
    TITLE "0:"
    INDEX 01 03:21:65
  TRACK 133 AUDIO
    TITLE "28:cjc123_6864"
    INDEX 01 03:22:10
  TRACK 134 AUDIO
    TITLE "0:"
    INDEX 01 03:23:13
  TRACK 135 AUDIO
    TITLE "29:cjc123_6865"
    INDEX 01 03:23:27
  TRACK 136 AUDIO
    TITLE "0:"
    INDEX 01 03:25:00
  TRACK 137 AUDIO
    TITLE "30:cjc123_6866"
    INDEX 01 03:25:10
  TRACK 138 AUDIO
    TITLE "0:"
    INDEX 01 03:26:11
  TRACK 139 AUDIO
    TITLE "31:cjc123_6867"
    INDEX 01 03:26:58
  TRACK 140 AUDIO
    TITLE "0:"
    INDEX 01 03:30:56
  TRACK 141 AUDIO
    TITLE "32:cjc123_6868"
    INDEX 01 03:31:28
  TRACK 142 AUDIO
    TITLE "0:"
    INDEX 01 03:36:35
  TRACK 143 AUDIO
    TITLE "28:cjc123_6869"
    INDEX 01 03:36:47
  TRACK 144 AUDIO
    TITLE "0:"
    INDEX 01 03:37:66
  TRACK 145 AUDIO
    TITLE "29:cjc123_6870"
    INDEX 01 03:38:05
  TRACK 146 AUDIO
    TITLE "0:"
    INDEX 01 03:39:41
  TRACK 147 AUDIO
    TITLE "30:cjc123_6871"
    INDEX 01 03:39:47
  TRACK 148 AUDIO
    TITLE "0:"
    INDEX 01 03:40:62
  TRACK 149 AUDIO
    TITLE "31:cjc123_6872"
    INDEX 01 03:41:36
  TRACK 150 AUDIO
    TITLE "0:"
    INDEX 01 03:44:03
  TRACK 151 AUDIO
    TITLE "32:cjc123_6873"
    INDEX 01 03:44:39
  TRACK 152 AUDIO
    TITLE "0:"
    INDEX 01 03:47:41
